Coordinates
version=1
nRows=7
nColumns=42
inDegrees=yes

Units are S.I. units (second, meters, Newtons, ...)
If the header above contains a line with 'inDegrees', this indicates whether rotational values are in degrees (yes) or radians (no).

endheader
time	pelvis_tilt	pelvis_list	pelvis_rotation	pelvis_tx	pelvis_ty	pelvis_tz	hip_flexion_r	hip_adduction_r	hip_rotation_r	knee_angle_r	knee_adduction_r	knee_angle_r_beta	ankle_angle_r	subtalar_angle_r	mtp_angle_r	hip_flexion_l	hip_adduction_l	hip_rotation_l	knee_angle_l	knee_adduction_l	knee_angle_l_beta	ankle_angle_l	subtalar_angle_l	mtp_angle_l	lumbar_extension	lumbar_bending	lumbar_rotation	arm_flex_r	arm_add_r	arm_rot_r	elbow_flex_r	pro_sup_r	wrist_flex_r	wrist_dev_r	arm_flex_l	arm_add_l	arm_rot_l	elbow_flex_l	pro_sup_l	wrist_flex_l	wrist_dev_l
      2.10000000	     11.00717317	    -12.46193586	    -10.46388023	     -1.01084261	      0.86873860	     -0.22761205	      1.77552992	     -0.68658639	    -17.70152923	     28.96350361	     -6.09171545	      0.50550850	     -0.37843034	      6.73498617	     -7.60433373	     -5.98017129	    -12.00444408	    -31.46572867	     21.90939822	     -2.90013927	      0.38239114	     15.29933613	     26.00584128	     -7.60433373	    -34.21712931	     10.75153565	      0.99072854	    -11.82112918	     -2.46853184	     -8.12452104	    109.35196415	     90.00000001	      0.00000000	      0.00000000	      0.37151547	    -13.86026865	    -10.78855816	     54.98075017	     90.00000001	      0.00000000	      0.00000000
      2.11000000	     11.30655025	    -12.49174148	    -10.09008611	     -1.00937210	      0.86883398	     -0.22786746	      2.00458535	     -0.83215440	    -18.60479528	     28.79503114	     -6.25376837	      0.50256810	     -0.35887124	      8.16767052	     -7.60087303	     -6.32557305	    -11.91895698	    -31.04895458	     21.85791710	     -2.92247412	      0.38149262	     15.70293099	     26.06079339	     -7.60087303	    -34.41062460	     10.76042246	      0.79915870	    -11.75012873	     -2.61678016	     -7.30340388	    109.86931421	     90.00000001	      0.00000000	      0.00000000	      0.28628194	    -13.88969290	    -10.99158557	     54.44298323	     90.00000001	      0.00000000	      0.00000000
      2.12000000	     11.37869767	    -12.52799670	     -9.91781930	     -1.00802059	      0.86878073	     -0.22785223	      2.46849366	     -0.85145109	    -18.70605995	     28.66491985	     -6.14012820	      0.50029723	     -0.27531004	      8.24683187	     -7.60013724	     -6.43505439	    -11.91704059	    -30.96480674	     21.86702558	     -2.97201325	      0.38165159	     15.69605660	     25.92974374	     -7.60013724	    -34.38226823	     10.69688980	      0.90748493	    -11.64904012	     -2.53928803	     -7.22801473	    109.85759322	     90.00000001	      0.00000000	      0.00000000	      0.13998901	    -13.89968977	    -11.00762044	     54.39469212	     90.00000001	      0.00000000	      0.00000000
      2.13000000	     11.51426415	    -12.57060395	     -9.70180813	     -1.00655314	      0.86874301	     -0.22784409	      2.88504400	     -0.85580746	    -19.04369432	     28.53307414	     -6.16638776	      0.49799609	     -0.13553699	      8.55280905	     -7.59880689	     -6.62875255	    -11.87520185	    -30.82491172	     21.84344341	     -3.09559485	      0.38124001	     15.81948818	     25.85164301	     -7.59880689	    -34.37675484	     10.68614668	      0.80316114	    -11.57533477	     -2.43824002	     -7.03717494	    109.93717727	     90.00000001	      0.00000000	      0.00000000	     -0.05545308	    -13.90992512	    -11.06920154	     54.18992591	     90.00000001	      0.00000000	      0.00000000
      2.14000000	     11.60448985	    -12.58247582	     -9.49083923	     -1.00531178	      0.86870454	     -0.22778996	      3.36194804	     -0.89103290	    -19.10380149	     28.46428561	     -6.00139078	      0.49679550	     -0.09614300	      8.59243119	     -7.59809119	     -6.70449560	    -11.87429460	    -30.61724783	     21.93902466	     -3.11519258	      0.38290822	     15.79815606	     25.70912968	     -7.59809119	    -34.44352639	     10.61276848	      0.92764684	    -11.53780651	     -2.42952701	     -6.98346481	    109.87340344	     90.00000001	      0.00000000	      0.00000000	     -0.17729898	    -13.95336687	    -11.08367674	     54.16356607	     90.00000001	      0.00000000	      0.00000000
      2.15000000	     11.70509327	    -12.61115261	     -9.29796626	     -1.00386823	      0.86865276	     -0.22765388	      3.80361507	     -0.89653175	    -19.27483951	     28.34945892	     -5.89582132	      0.49479140	     -0.04556396	      8.63470847	     -7.59747273	     -6.85974601	    -11.87285685	    -30.49221066	     21.94402207	     -3.16126182	      0.38299544	     15.84731245	     25.60034762	     -7.59747273	    -34.43478530	     10.56753331	      0.97509485	    -11.55658387	     -2.40276277	     -6.91880803	    109.84668862	     90.00000001	      0.00000000	      0.00000000	     -0.34759157	    -13.97658640	    -11.10611156	     54.07596712	     90.00000001	      0.00000000	      0.00000000
      2.16000000	     11.93773753	    -12.65869164	     -8.95081039	     -1.00227763	      0.86868010	     -0.22748239	      4.11111585	     -0.88995474	    -20.04585731	     28.25422646	     -6.03138484	      0.49312928	      0.03735603	      9.06057725	     -7.59582430	     -7.13681398	    -11.85288457	    -30.17266884	     21.92286782	     -3.27780461	      0.38262622	     16.25336806	     25.65489195	     -7.59582430	    -34.51121183	     10.54373269	      0.81137934	    -11.65019306	     -2.41814389	     -6.66404425	    109.87965549	     90.00000001	      0.00000000	      0.00000000	     -0.51125273	    -14.02481737	    -11.24007120	     53.65144943	     90.00000001	      0.00000000	      0.00000000
